

 The.Lords.Of.Salem.2012.DVDRip.XVID.AC3.HQ.Hive-CM8


 Source: DVD-R PAL

 Video.: 720x304 @bitrate 1700 2pass
 Audio.: English AC3 5.1 @448
 Sample: Yes, included


 IMDb..: http://www.imdb.com/title/tt1731697/


 ENCODE
 dvd quality was ok, had a bit of noise in it.
 added brightness, sharpness, rgb and denoise.
 got very nice 
 enjoy


 General
 Complete name                  : The.Lords.Of.Salem.2012.DVDRip.XVID.AC3.HQ.Hive-CM8.avi
 Format                         : AVI
 Format/Info                    : Audio Video Interleave
 File size                      : 1.46 GiB
 Duration                       : 1h 36mn
 Overall bit rate               : 2 157 Kbps
 Writing application            : Nandub v1.0rc2
 Writing library                : Nandub build 1853/release

 Video
 ID                             : 0
 Format                         : MPEG-4 Visual
 Format profile                 : Advanced Simple@L5
 Format settings, BVOP          : 2
 Format settings, QPel          : Yes
 Format settings, GMC           : No warppoints
 Format settings, Matrix        : Default (H.263)
 Muxing mode                    : Packed bitstream
 Codec ID                       : XVID
 Codec ID/Hint                  : XviD
 Duration                       : 1h 36mn
 Bit rate                       : 1 699 Kbps
 Width                          : 720 pixels
 Height                         : 304 pixels
 Display aspect ratio           : 2.35:1
 Frame rate                     : 25.000 fps
 Color space                    : YUV
 Chroma subsampling             : 4:2:0
 Bit depth                      : 8 bits
 Scan type                      : Progressive
 Compression mode               : Lossy
 Bits/(Pixel*Frame)             : 0.311
 Stream size                    : 1.15 GiB (79%)
 Writing library                : XviD 1.2.1 (UTC 2008-12-04)

 Audio
 ID                             : 1
 Format                         : AC-3
 Format/Info                    : Audio Coding 3
 Mode extension                 : CM (complete main)
 Format settings, Endianness    : Big
 Codec ID                       : 2000
 Duration                       : 1h 36mn
 Bit rate mode                  : Constant
 Bit rate                       : 448 Kbps
 Channel(s)                     : 6 channels
 Channel positions              : Front: L C R, Side: L R, LFE
 Sampling rate                  : 48.0 KHz
 Bit depth                      : 16 bits
 Compression mode               : Lossy
 Stream size                    : 311 MiB (21%)
 Alignment                      : Split accross interleaves
 Interleave, duration           : 40 ms (1.00 video frame)
 Interleave, preload duration   : 500 ms


 PLOT
 Heidi, a radio DJ, is sent a box containing a record - a "gift from the Lords."
 The sounds within the grooves trigger flashbacks of her town's violent past.
 Is Heidi going mad, or are the Lords back to take revenge on Salem, Mass.?


 CAST
 Sheri Moon Zombie     ...    Heidi Hawthorne
 Bruce Davison         ...    Francis Matthias
 Jeff Daniel Phillips  ...    Herman 'Whitey' Salvador



   	http://www.shotpix.com/images/21629696750430489328.png
    	http://www.shotpix.com/images/43014113803210724343.png
    	http://www.shotpix.com/images/67647331486137526619.png
    	http://www.shotpix.com/images/07701428334841888953.png
    	http://www.shotpix.com/images/20809277683552623556.png